<svg xmlns="http://www.w3.org/2000/svg" width="277" height="235" viewBox="0 0 277 235" version="1.1">
	<path d="M 116.500 15.604 C 106.654 17.011, 100.105 18.206, 97.250 19.118 L 94 20.155 94 27.110 C 94 35.256, 92.503 39.303, 87.869 43.689 C 83.606 47.723, 79.840 49.142, 73.389 49.142 C 67.486 49.143, 62.647 47.343, 58.783 43.711 L 56.067 41.157 50.201 47.829 C 43.214 55.774, 37.422 64.223, 33.144 72.707 C 29.887 79.167, 25 92.753, 25 95.349 C 25 96.179, 26.597 97.372, 28.586 98.028 C 36.209 100.544, 42.929 109.349, 42.978 116.884 C 43.035 125.708, 38.059 133.455, 29.991 137.101 C 27.246 138.341, 25 139.867, 25 140.491 C 25 141.114, 26.284 145.422, 27.854 150.062 C 33.030 165.364, 39.333 176.076, 49.507 186.860 L 56.166 193.919 61.113 190.516 C 67.473 186.141, 73.170 185.232, 80.002 187.501 C 89.875 190.780, 95.599 200.150, 94.320 210.943 L 93.739 215.853 97.619 216.867 C 114.552 221.291, 132.919 221.316, 152.044 216.939 L 156.588 215.899 156.178 209.448 C 155.830 203.991, 156.174 202.165, 158.408 197.598 L 161.050 192.199 159.137 188.849 C 158.084 187.007, 156.462 183.138, 155.531 180.250 C 154.601 177.363, 153.313 175, 152.670 175.001 C 152.026 175.001, 149.180 175.883, 146.344 176.961 C 138.620 179.896, 125.470 181.252, 116.238 180.063 C 101.331 178.145, 90.756 172.616, 79.494 160.851 C 63.611 144.259, 58.249 121.474, 65.057 99.500 C 67.815 90.595, 69.702 86.924, 75.454 79.273 C 87.638 63.064, 108.746 53.729, 129.483 55.378 C 138.504 56.095, 149.500 59.163, 149.500 60.963 C 149.500 61.616, 143.763 68.330, 136.752 75.883 L 124.003 89.615 114.527 88.179 L 105.051 86.743 97.275 93.799 C 83.877 105.958, 71.717 118.732, 72.435 119.895 C 72.811 120.503, 73.673 121, 74.352 121 C 75.031 121, 82.542 114.468, 91.043 106.483 C 104.272 94.060, 106.874 92.033, 109.097 92.428 C 110.526 92.681, 115.026 93.189, 119.097 93.556 L 126.500 94.223 144.351 75.112 C 154.169 64.600, 162.776 56, 163.479 56 C 164.181 56, 165.324 56.686, 166.020 57.524 C 167.066 58.785, 166.848 59.662, 164.762 62.595 L 162.238 66.141 169.369 73.331 C 177.797 81.827, 184.184 93.142, 186.605 103.862 C 187.492 107.788, 188.731 110.984, 189.359 110.964 C 189.986 110.945, 193.200 110.277, 196.500 109.480 C 199.800 108.683, 203.784 108.024, 205.353 108.016 C 207.306 108.005, 209.761 106.602, 213.138 103.566 C 215.850 101.128, 219.629 98.618, 221.535 97.989 C 225.696 96.615, 225.787 95.662, 222.642 86.425 C 218.041 72.916, 209.352 58.401, 198.799 46.594 L 194.414 41.688 190.133 44.789 C 181.128 51.312, 170.513 51.168, 163.046 44.423 C 157.535 39.444, 155.818 35.219, 156.104 27.342 C 156.279 22.488, 155.967 20.561, 154.909 19.969 C 150.559 17.535, 124.064 14.524, 116.500 15.604 M 146 128.567 L 146 170.135 148.250 169.466 C 151.833 168.402, 152.678 166.510, 153.257 158.255 C 153.871 149.505, 157.318 139.283, 161.988 132.363 L 165 127.900 165 107.450 L 165 87 155.500 87 L 146 87 146 128.567 M 116 142.500 L 116 174 125 174 L 134 174 134 142.500 L 134 111 125 111 L 116 111 116 142.500 M 197 116.098 C 189.879 117.489, 179.992 122.889, 173.833 128.752 C 154.726 146.939, 154.931 178.309, 174.277 196.955 C 184.470 206.778, 194.245 210.965, 207.040 210.988 C 225.874 211.022, 242.200 200.672, 250.678 183.322 C 254.489 175.522, 254.500 175.464, 254.500 162.947 C 254.500 150.494, 254.470 150.333, 250.815 142.947 C 246.163 133.545, 241.181 127.720, 233.606 122.824 C 222.821 115.853, 210.163 113.527, 197 116.098 M 86.224 144.218 L 86.500 159.436 94.408 164.718 C 98.757 167.623, 102.695 170, 103.158 170 C 103.621 170, 104 160.775, 104 149.500 L 104 129 94.974 129 L 85.948 129 86.224 144.218 M 204.975 134.565 C 204.439 135.976, 204 137.720, 204 138.440 C 204 139.161, 202.751 140, 201.223 140.305 C 194.611 141.628, 189.300 149.074, 190.926 154.742 C 193.060 162.182, 197.695 165.990, 204.625 165.996 C 214.376 166.005, 218.811 168.922, 217.431 174.420 C 216.489 178.174, 214.609 178.833, 202.642 179.607 C 191.329 180.338, 188.640 181.497, 191.537 184.394 C 192.604 185.461, 194.906 186, 198.395 186 C 203.610 186, 203.654 186.026, 204.574 189.674 C 205.083 191.695, 206.010 193.515, 206.634 193.719 C 208.327 194.272, 211 191.168, 211 188.648 C 211 186.958, 211.979 186.093, 215.159 184.969 C 221.011 182.902, 223.500 179.165, 223.500 172.446 C 223.500 167.737, 223.101 166.640, 220.412 163.950 C 217.141 160.680, 212.190 159.063, 205.323 159.024 C 202.017 159.005, 200.713 158.450, 199.073 156.365 C 196.509 153.107, 196.483 151.861, 198.911 148.861 C 200.663 146.695, 201.759 146.459, 212.161 146 C 223.456 145.502, 223.500 145.490, 223.500 143 C 223.500 140.948, 222.963 140.453, 220.500 140.236 C 212.508 139.532, 211 138.964, 211 136.655 C 211 131.928, 206.563 130.389, 204.975 134.565" stroke="none" fill="#FF9D00" fill-rule="evenodd"/>
</svg>